<svg width="40" height="38" viewBox="0 0 40 38" fill="none" xmlns="http://www.w3.org/2000/svg">
<g id="Frame">
<path id="Vector" d="M11.25 14.1659C11.5815 14.1659 11.8995 14.0415 12.1339 13.8202C12.3683 13.5988 12.5 13.2985 12.5 12.9854C12.5 12.6723 12.3683 12.3721 12.1339 12.1507C11.8995 11.9293 11.5815 11.8049 11.25 11.8049C10.9185 11.8049 10.6005 11.9293 10.3661 12.1507C10.1317 12.3721 10 12.6723 10 12.9854C10 13.2985 10.1317 13.5988 10.3661 13.8202C10.6005 14.0415 10.9185 14.1659 11.25 14.1659ZM15 14.1659C15.3315 14.1659 15.6495 14.0415 15.8839 13.8202C16.1183 13.5988 16.25 13.2985 16.25 12.9854C16.25 12.6723 16.1183 12.3721 15.8839 12.1507C15.6495 11.9293 15.3315 11.8049 15 11.8049C14.6685 11.8049 14.3505 11.9293 14.1161 12.1507C13.8817 12.3721 13.75 12.6723 13.75 12.9854C13.75 13.2985 13.8817 13.5988 14.1161 13.8202C14.3505 14.0415 14.6685 14.1659 15 14.1659ZM20 12.9854C20 13.2985 19.8683 13.5988 19.6339 13.8202C19.3995 14.0415 19.0815 14.1659 18.75 14.1659C18.4185 14.1659 18.1005 14.0415 17.8661 13.8202C17.6317 13.5988 17.5 13.2985 17.5 12.9854C17.5 12.6723 17.6317 12.3721 17.8661 12.1507C18.1005 11.9293 18.4185 11.8049 18.75 11.8049C19.0815 11.8049 19.3995 11.9293 19.6339 12.1507C19.8683 12.3721 20 12.6723 20 12.9854Z" fill="#EAB308"/>
<path id="Vector_2" d="M30 2.36096C31.3261 2.36096 32.5979 2.85845 33.5355 3.744C34.4732 4.62954 35 5.83059 35 7.08294C36.3261 7.08294 37.5979 7.58043 38.5355 8.46597C39.4732 9.35152 40 10.5526 40 11.8049V30.6928C40 31.9452 39.4732 33.1462 38.5355 34.0318C37.5979 34.9173 36.3261 35.4148 35 35.4148H10C8.67392 35.4148 7.40215 34.9173 6.46447 34.0318C5.52678 33.1462 5 31.9452 5 30.6928C3.67392 30.6928 2.40215 30.1953 1.46447 29.3098C0.526784 28.4242 0 27.2232 0 25.9708V7.08294C0 5.83059 0.526784 4.62954 1.46447 3.744C2.40215 2.85845 3.67392 2.36096 5 2.36096H30ZM5 28.3318V11.8049C5 10.5526 5.52678 9.35152 6.46447 8.46597C7.40215 7.58043 8.67392 7.08294 10 7.08294H32.5C32.5 6.45677 32.2366 5.85624 31.7678 5.41347C31.2989 4.9707 30.663 4.72195 30 4.72195H5C4.33696 4.72195 3.70107 4.9707 3.23223 5.41347C2.76339 5.85624 2.5 6.45677 2.5 7.08294V25.9708C2.5 26.597 2.76339 27.1975 3.23223 27.6403C3.70107 28.0831 4.33696 28.3318 5 28.3318ZM7.5 18.8879V30.6928C7.5 31.319 7.76339 31.9195 8.23223 32.3623C8.70107 32.8051 9.33696 33.0538 10 33.0538H35C35.663 33.0538 36.2989 32.8051 36.7678 32.3623C37.2366 31.9195 37.5 31.319 37.5 30.6928V18.8879H7.5ZM37.5 16.5269V11.8049C37.5 11.1787 37.2366 10.5782 36.7678 10.1354C36.2989 9.69267 35.663 9.44393 35 9.44393H10C9.33696 9.44393 8.70107 9.69267 8.23223 10.1354C7.76339 10.5782 7.5 11.1787 7.5 11.8049V16.5269H37.5Z" fill="#EAB308"/>
</g>
</svg>
